<svg width="30" height="30" viewBox="0 0 30 30" fill="none" xmlns="http://www.w3.org/2000/svg">
<path d="M13.8516 1.19521L13.8288 0.950405L13.4796 0.526805L13.3728 0.495605L13.2984 0.602405L13.3104 0.729605L13.1928 0.836405L13.1808 0.984005L13.3188 1.05841L13.512 1.19641H13.8516V1.19521ZM16.5408 23.7948L16.3968 23.5212L16.2036 23.124L16.05 22.7088L15.9372 22.242L15.888 21.8412V21.4524L15.9288 20.994L15.9804 20.7636L15.9192 20.568L15.7932 20.4672L15.54 20.28L15.3612 20.1528L15.3276 19.908L15.2436 19.6464L15.0852 19.3896L14.9148 19.1712L14.7012 18.9672L14.43 18.762L14.1252 18.534L13.9632 18.456L13.8024 18.4068L13.6668 18.4296L13.5492 18.5076L13.4976 18.6348L13.5324 18.8652L13.65 19.3812L13.854 20.0616L14.0244 20.4684L14.2524 20.9868L14.4144 21.2916L14.6616 21.7416L14.958 22.2432L15.192 22.566L15.3876 22.8276L15.396 22.9716L15.3696 23.0892L15.2604 23.1324L14.9316 23.1492L14.3556 23.1144L13.8804 23.0532L13.4628 22.9788L12.9552 22.8348L12.6984 22.722L12.528 22.6476L12.3348 22.6128L12.1128 22.6212L11.9952 22.6728H11.8332L11.4504 22.6128L11.232 22.5384L10.9932 22.5216L10.6128 22.5132L10.3248 22.4868H10.0596L9.79799 22.5036L9.61919 22.578L9.49199 22.6128L9.44879 22.6728L9.45719 22.7916L9.57839 22.9872L9.80639 23.3016L9.94199 23.3592L10.1556 23.5116L10.4004 23.6472L10.6656 23.7336L11.046 23.742L11.3856 23.7072L11.6736 23.6412L11.9184 23.5632L12.0216 23.6148L12.0708 23.7156L12.1572 23.742L12.3672 23.7336L12.6324 23.7516L12.768 23.7948L12.9288 23.7516L13.4532 23.8176L13.8108 23.8692L14.3952 23.9964L14.8212 24.1224L15.2424 24.2664L15.6132 24.4368L15.7572 24.54L16.14 24.5568L16.344 24.5052L16.4532 24.2832L16.5708 24.012L16.5408 23.7948ZM10.5504 22.9248L10.524 22.9848L10.4784 23.04L10.4412 23.052L10.3632 23.0544L10.2936 23.034L10.2624 23.0076L10.2168 22.95L10.2192 22.8984L10.2456 22.8612L10.3344 22.8324L10.4376 22.812L10.5156 22.8096L10.5528 22.8324L10.5612 22.8756L10.5504 22.9248ZM14.6784 23.4516L14.6472 23.4924L14.5488 23.4984L14.3784 23.4696L14.2284 23.4432L14.0724 23.4348L13.9224 23.4228L13.5792 23.3364L13.308 23.2524L13.1148 23.1888L13.086 23.1336L13.0944 23.0736L13.1316 23.0592L13.3848 23.1396L13.4976 23.1852L13.6152 23.2116L13.7592 23.232L13.998 23.2584L14.2056 23.2896L14.4012 23.304L14.5596 23.3388L14.6484 23.3616L14.6748 23.3964V23.4516H14.6784ZM15.8544 23.2824L15.8232 23.34L15.7656 23.3856L15.6816 23.406L15.636 23.3856L15.6216 23.3364L15.636 23.2812L15.714 23.2236L15.7716 23.2092H15.8352L15.8556 23.2356V23.2824H15.8544Z" fill="white"/>
<path d="M25.1664 11.7288L25.0488 11.6736V11.8548L24.954 11.9616L24.7836 12.2148L24.6888 12.2784L24.4236 12.5988L24.3168 12.7692L24.1896 13.0548L24.0516 13.0776L23.9244 13.0032L23.8488 12.6636L23.8692 12.2724L23.9556 11.9088L24.1656 11.5692L24.5916 10.932L24.846 10.4136L24.8772 10.05L24.8364 9.93478L24.762 10.0092L24.6348 10.326L24.4416 10.6464L24.156 10.8804L23.8272 11.1972L23.3376 11.7708L23.2428 11.7624L23.2116 11.664L23.1996 11.43L23.2308 10.9944L23.3808 10.5072L23.646 9.96598L23.9976 9.53038L24.4332 9.15838L24.474 9.07198L24.4224 9.03118L24.2004 9.14638L24.0192 9.26398L23.7108 9.52918L23.328 9.86878L23.0544 10.2408L22.788 10.728L22.6416 11.1228L22.5984 11.5152L22.578 12.0456L22.7052 12.5988L22.8324 13.0776L23.0772 13.83L23.2356 14.7324L23.3304 15.4212V15.7932L23.2896 16.1844L23.226 16.5048L23.1072 16.8648L22.6608 17.4264L22.2048 17.8416L21.6204 18.1704L21.0588 18.2016L20.9844 17.928L20.7828 17.5332L20.5068 17.1528L20.3256 16.9284L20.0832 16.5996L19.5612 16.1016L19.0308 15.666L18.798 15.4848L18.066 14.9892L17.0148 14.1072L16.4412 13.3956L15.8136 12.3672L15.6432 11.7504L15.6864 11.3676L15.7728 11.2932L15.9948 11.4432L16.3464 11.6136L16.632 11.6016L16.9596 11.7516L17.3112 11.9652L17.4924 12.1116L17.7264 12.2736L17.9688 12.3048L18.024 12.198L17.9604 12.186L17.886 12.2172L17.7684 12.1428L17.664 11.9844L17.514 11.7396L17.226 11.4744L16.9404 11.3676L16.782 11.3364L16.8144 11.2524H17.0364L17.2932 11.3364L17.6652 11.5812L17.8356 11.6556L17.8992 11.5692L17.7924 11.4228L17.5044 11.166L17.058 10.9332L16.5192 10.7232L16.4124 10.6368L16.5192 10.5624L16.7616 10.68L17.208 10.7544L17.6856 10.9452L17.9388 11.0724L18.3852 11.136L18.7056 11.0928L18.8844 11.0088L19.1292 10.8588L19.236 10.7556L19.248 10.6812L19.1484 10.6896L19.0536 10.788L18.7368 10.8924L18.4608 10.9356L18.2268 10.9044L18.0024 10.7256L17.8008 10.4892L17.5584 10.3104L17.196 10.236L16.8468 10.1184L16.6968 10.0236L16.7088 9.93958L16.8468 9.95998H17.1552L17.4636 9.93958H17.7804L17.9508 9.90838L18.0888 10.0236L18.3108 10.0788H18.492L18.576 10.0152L18.4296 9.97198L18.2484 9.85438L18.0576 9.67558L17.7492 9.51358L17.496 9.48238L17.2632 9.45118L17.1768 9.39958L17.3472 9.30478H17.6232L17.8368 9.36838L18.0468 9.47518L18.3864 9.62158L18.726 9.63358L18.9072 9.54718L18.9588 9.43198L18.8208 9.36838L18.5352 9.35638L18.2904 9.27238L18.078 9.09118L17.844 8.97358L17.5356 8.92198L17.2704 8.82718L17.1552 8.67718L17.1756 8.60278L17.346 8.63758L17.5596 8.70118L17.6868 8.79598L17.868 8.81638L17.8884 8.72158L17.6988 8.57158L17.6436 8.43598L17.8992 8.47678L18.1416 8.60398L18.45 8.63878L18.5688 8.86078L18.8856 9.05158L18.9024 9.04918L18.972 9.02038L19.056 8.96878L19.0152 8.90518L18.8964 8.91358L18.7896 8.76718L18.576 8.43838L18.204 8.10718L17.8236 7.93678L17.7168 7.80958L17.4828 7.53358L17.2692 7.41838L17.238 7.31158L17.3328 7.24798L17.5572 7.29958L18.0012 7.42678L18.2148 7.50118L18.3528 7.69438L18.5748 7.80958H18.7452L18.9696 7.87318L19.2144 7.82998L19.3092 7.74598L19.1712 7.62838L18.9696 7.57678L18.7356 7.54558L18.5976 7.42798L18.4164 7.16278L18.3732 6.99238L18.1392 6.78238L17.886 6.62038L17.598 6.44158L17.2812 6.14518L17.2608 6.05878H17.3328L17.748 6.38758L18.1716 6.63238L18.396 6.80278L18.6816 7.06798L18.9372 7.20598L19.0848 7.24918L19.1592 7.13158L19.0524 7.09078L18.8304 6.88918L18.7668 6.66478L18.534 6.41158L18.3408 6.24958L18.246 6.00718L17.9172 5.51758L17.4708 5.12518L17.4504 4.99798L17.6088 5.01838L17.8332 5.13358L18.1932 5.28358L18.5652 5.30398L18.8412 5.43358L19.1376 5.48518L19.3908 5.41078L19.3704 5.30398L19.0824 5.24038L18.8292 5.12518L18.3192 4.88038L18.0432 4.73038L17.8956 4.55158L17.9472 4.48798L18.0216 4.53958L18.1368 4.58278L18.2868 4.59478H18.5316L18.7416 4.57198L19.062 4.55158L19.3068 4.64638L19.56 4.82758L19.6668 4.85878L19.6788 4.76398L19.5924 4.67758L19.3392 4.44358L18.9444 4.24198L18.6588 4.21078L18.1176 4.17958L17.9916 4.02958L17.7156 3.75358L17.4072 3.54358L17.292 3.43678L17.3868 3.36238L17.5332 3.42598L17.7984 3.56398L18.0984 3.67078L18.5016 3.76558H18.8508L19.1388 4.08598L19.3728 4.22398L19.4568 4.13758L19.14 3.67078L18.642 3.31078L18.2268 3.21238L17.8752 2.84398L17.5668 2.66278L17.1432 2.55598L17.3772 2.35438L17.7924 2.21638L18.1008 2.12158L18.1728 2.02678L18.132 1.95238L17.9616 1.90918L17.8008 1.87798L16.602 1.90078L16.3884 1.66438L16.146 1.50598L15.8376 1.36798L15.4344 1.30438H15.0852L14.9904 1.17718L14.6616 0.825576L14.2668 0.465576L14.0244 0.868776L14.0124 0.995976L14.1276 1.14598L14.1396 1.27318L14.0556 1.34758L13.788 1.36798L13.3008 1.22998L12.822 1.12678L12.6 1.13518L12.2376 1.20958L12.2808 1.33678L12.4824 1.32838L12.5664 1.34278L12.564 1.45558L12.4464 1.48198L12.294 1.46158L12.0636 1.51078L11.8908 1.56598L11.7528 1.57438L11.7096 1.63438L11.7588 1.71838L11.8632 1.74118L11.9616 1.71238L12.0744 1.66318L12.1896 1.65718L12.4344 1.66918L12.6216 1.72678L12.8436 1.78198L13.1688 1.92838L13.1976 1.99798L13.1628 2.05318L13.0104 2.10838L12.918 2.15158L12.7536 2.26078L12.5028 2.39398L12.198 2.60998L11.844 2.75158L11.568 2.93278L11.3172 3.04198L11.0808 3.09958L10.8732 3.10558L10.5876 3.11158L10.4784 3.14038L10.4148 3.27358L10.3656 3.41758L10.3104 3.51598L10.1724 3.72358L10.0392 3.95398L9.95039 4.06678L9.94199 4.19638L9.95039 4.37758V4.57078L10.068 4.67758L10.1724 4.73278L10.296 4.72438L10.4976 4.66918L10.7256 4.59958L11.034 4.47598L11.1576 4.48198L11.1864 4.55998L11.1576 4.63438L11.0532 4.68958L10.7388 4.80718L10.5024 4.87678L10.4568 4.95478L10.4484 5.03878L10.5264 5.10838L10.6908 5.12878H10.824L10.9908 5.12278L11.172 5.07958L11.4348 4.94158L11.6076 4.90678L11.754 4.87798L11.8668 4.91518L12.0312 4.90678L12.1932 4.92718L12.3264 5.00518L12.534 5.02558L12.8052 5.10958L12.9516 5.12998L13.1796 5.08918L13.4712 5.10958L13.5984 5.15878L13.668 5.27638L13.6536 5.42878L13.6188 5.61598L13.5492 5.83198L13.4508 6.10318L13.3524 6.39958L13.248 6.67078L13.1784 6.85798L12.942 7.22638L12.6564 7.58638L12.3996 7.94038L12.0744 8.26558L11.7744 8.51878L11.5836 8.72038L11.4828 9.05158L11.3436 9.21598L11.1648 9.34318L10.9488 9.52198L10.6176 9.72358L10.338 9.86398L10.1592 10.068L10.032 10.2336L9.90479 10.3116L9.72599 10.4004L9.61079 10.374L9.38279 10.2696L9.12959 10.1052L8.75759 9.94078L8.33999 9.72238L8.12399 9.55798L7.85639 9.34198L7.56239 9.09958L7.24559 8.98438L6.96599 8.93518L6.60839 9.00958L6.35519 9.15118L6.13679 9.30358L6.02399 9.58318L5.94599 9.79918L5.85719 10.1304L5.75639 10.332L5.65559 10.6404L5.64119 11.0088L5.55239 11.2248L5.45159 11.568L5.36279 11.9112L5.19839 12.2316L5.10959 12.5484L5.05799 12.9432L4.91639 13.2744L4.82759 13.464L4.81559 13.6548L4.80359 13.9752V14.5344L4.73999 14.7648L4.77719 14.9664L4.76279 15.2976L4.87799 15.5628L4.96679 15.6264L5.13119 15.5748L5.28359 15.4368L5.50199 15.1716L5.69279 14.8668L5.76719 14.6136L5.71799 14.4096L5.65439 14.1564L5.57639 13.8516L5.50199 13.5324L5.46119 13.29V13.062L5.51279 12.8052L5.63999 12.4128L5.76719 12.2088L5.88239 12.1056L5.97119 11.9676L6.13559 11.9532L6.21359 11.904L6.32879 11.7996L6.45599 11.6868L6.57119 11.5344L6.62039 11.3556L6.66119 11.2032L6.67319 10.9992L6.71039 10.8204L6.79919 10.7076L6.88799 10.6812L7.00319 10.7184L7.16759 10.8072L7.34639 11.0112L7.53719 11.2908L7.75319 11.544L7.98359 11.748L8.18759 11.9124L8.38919 12.0012L8.45279 12.1284L8.38919 12.192L8.17319 12.1428L7.86839 12.1164L7.47359 12.0384L7.09319 11.964L6.63479 11.9496L6.36719 11.964L6.16319 12.0912L5.94719 12.2808L5.76839 12.5856L5.63039 12.9312L5.61599 13.1844L5.69399 13.6428L5.87279 14.2272L5.96159 14.6856L6.07439 15.132L6.15239 15.4464L6.18959 15.7404L6.29039 16.0716L6.36839 16.5792L6.44279 16.758L6.63599 16.9104L6.81479 17.0892L7.01639 17.3952L7.15799 17.7528L7.37399 18.0696L7.69079 18.3744L7.91999 18.516L8.07239 18.528L8.19959 18.4908L8.27759 18.312L8.36399 18.1596L8.41559 17.9436V17.448L8.35199 17.3064C8.33999 17.3064 8.33999 17.2176 8.33999 17.2056L8.31359 17.1168L8.20919 16.9644L8.01839 16.7736L7.66439 16.6212L7.53479 16.5804L7.51199 16.3644L7.52399 16.2264L7.28159 15.9468L7.12919 15.5892L7.00199 15.0816L6.89879 14.6124L6.72359 14.244L6.65999 13.7976L6.76079 13.53L6.93959 13.4292H7.07759L7.28159 13.608L7.57559 13.7868L7.88039 13.8996L8.61839 14.2572L8.97599 14.4612V14.6508L9.30479 14.8404L9.72599 14.982H10.6044L10.5408 15.1464L10.5036 15.2352L10.6164 15.4488L10.8324 15.7692L11.178 16.1124L11.5956 16.5708L11.9532 16.8876L12.6216 17.4L13.1628 17.6904L13.5696 17.9064L14.0916 18.2604L14.5728 18.6036L14.988 18.9552L15.42 19.5396L15.4404 19.7844L15.5388 20.0376L15.804 20.2284L16.0464 20.3232L16.1964 20.3028L16.3152 20.1876L16.4856 20.0064L16.5264 19.7616L16.728 19.4124L16.7712 19.1448L16.8036 18.8484L16.824 18.6144L16.89 18.468L17.0256 18.402H17.1552L17.1636 18.5004L17.0688 18.6036L16.9848 18.828L16.9212 18.966V19.1364L16.8984 19.4964L16.8468 19.6776L16.6884 19.9512L16.4748 20.3028L16.2624 20.6856L16.1364 21.1836L16.0728 21.7056L16.1364 22.2876L16.2204 22.6272L16.422 23.0736L16.6788 23.604L16.8804 24.0192L17.1564 24.4548L17.4852 24.858L17.5488 24.996V25.0908L17.5056 25.2084L17.3904 25.3992L17.2092 25.6524L16.8372 26.1312L16.4652 26.5344L16.1256 26.9064L15.9792 26.9928L15.6792 27.108L15.5004 27.2784L15.4056 27.4716L15.192 27.7368L14.9508 28.002L14.6544 28.3104L14.4732 28.6272L14.3664 28.9476L14.3028 29.2128L14.3148 29.4264L14.442 29.562H14.9088L15.1104 29.5416L15.3216 29.4156L15.5976 29.2884L15.6408 29.1816H15.7356L15.882 29.118L16.02 28.9884L16.0956 28.4808L16.0524 28.374L16.032 28.2672L16.1076 28.2876L16.1904 28.3104L16.2768 28.2468L16.4148 28.1604L16.5612 27.9696L16.7424 27.7128L16.8372 27.48L16.8576 27.2892L16.9764 27.2028L17.1468 27.108L17.2848 27.024L17.4 26.7912L17.6448 26.5356L18.102 26.112L18.45 25.8792L18.8016 25.686L18.8844 25.602L18.9168 25.5156L18.9912 25.4208L18.9396 25.2948L18.9288 25.0608L18.882 24.8424L18.8268 24.7152L18.7056 24.5076L18.5124 24.2652L18.4176 24.084L18.3972 23.8932V23.6376L18.4404 23.4912L18.5556 23.0964L18.6732 22.9056L18.8004 22.8312L19.0332 22.6848L19.3092 22.4484L19.6812 22.1316L19.9344 21.8664L20.19 21.57L20.4552 21.27L20.646 20.9328L20.8044 20.6448L20.9544 20.316L21.0612 19.9524L21.0936 19.6152L21.114 19.3584L21.2004 19.2744L21.2952 19.2516L21.3792 19.3068L21.4536 19.4856L21.474 19.7304L21.5088 19.9632L21.486 20.1216L21.4656 20.3664V20.8884L21.5292 21.3L21.6036 21.4068L21.6672 21.3984L21.6984 21.324L21.6552 21.1536V20.8656L21.7416 20.6232L21.7824 20.2716L21.8256 20.0268L21.8808 19.9116H21.9444L21.996 19.9632L22.0476 20.1648L22.0908 20.358L22.0704 20.6628L22.0068 21.078L21.8136 21.4812L21.6348 21.864L21.528 22.1928L21.5076 22.3944L21.528 22.6272L21.6024 22.8516H21.7404L21.8124 22.7532L21.7716 22.6464L21.7404 22.4556L21.8664 22.2852L22.014 22.0836L22.1124 21.894L22.3452 21.522L22.536 21.1824L22.62 20.8104L22.6944 20.3208V19.836L22.5996 19.4964L22.4088 19.2312L22.386 19.1052L22.4724 19.062L22.5792 19.1136L22.7172 19.284L22.8876 19.5924L22.9596 19.9524L23.0028 20.4312L23.1096 20.7624L23.1216 20.7708L23.268 21.0996L23.3628 21.1344L23.406 21.048L23.3952 20.9964L23.3232 20.7516L23.3124 20.5068L23.3232 20.1468L23.3868 19.7436V19.542L23.364 19.3716L23.1936 19.0308L23.0472 18.786L23.0988 18.6912L23.3004 18.648L23.5764 18.522L23.8728 18.3636L24.138 18.1308L24.4776 17.6724L24.6708 17.292L24.8292 16.9296L24.8808 16.3476L24.8928 15.8256L24.8088 15.18L24.7104 14.7132L24.6264 14.2344L24.5748 13.7364L24.6156 13.4196L24.702 13.0248L24.8808 12.6324L25.1364 12.2292L25.2312 11.9724L25.2516 11.8452L25.1664 11.7288ZM10.7292 4.04398L10.6452 4.12798L10.5276 4.19398L10.3692 4.22878L10.314 4.19398L10.2936 4.08118L10.3404 3.92278L10.4532 3.76678L10.5456 3.72118L10.6296 3.72958L10.7304 3.81358L10.776 3.88798L10.7292 4.04398ZM11.1432 3.94078L11.1144 3.95518L11.0568 3.95758L11.0112 3.93478L10.974 3.89158L10.98 3.83998L11.0232 3.77038L11.058 3.74758H11.1036L11.1444 3.75598L11.1588 3.79918L11.1648 3.87478L11.1432 3.94078ZM11.6568 4.41358L11.6136 4.43398H11.5584L11.5272 4.41718L11.5104 4.37038L11.5164 4.31278L11.5476 4.27798L11.5884 4.27558L11.6316 4.28758L11.652 4.31878L11.6664 4.37038L11.6568 4.41358ZM12.6384 2.92678L12.5724 2.94478L12.492 2.96518L12.4032 3.03958L12.204 3.16078L11.9304 3.23518L11.76 3.27838L11.5956 3.29038L11.5116 3.28198L11.6448 3.16918L11.8896 3.05158L12.1344 2.94238L12.3672 2.83318L12.474 2.78158L12.5544 2.76958L12.6204 2.78398L12.672 2.86798L12.6384 2.92678ZM5.21999 14.8692L5.13359 14.8488L5.09039 14.7648L5.17679 14.7216L5.25239 14.73L5.27279 14.8044L5.21999 14.8692ZM6.33479 10.4148L6.27479 10.6392L6.19679 10.8924L6.05879 11.106L5.98439 11.1264L5.95799 11.0688V10.956L5.97239 10.8036L6.02759 10.5156L6.14879 10.3056L6.21239 10.2312L6.30479 10.2048L6.33959 10.2564L6.33479 10.4148ZM6.94919 9.56998L6.81119 9.62158L6.67919 9.63598L6.59879 9.60478L6.57839 9.54718L6.60119 9.46918L6.67079 9.41998L6.81479 9.40318L6.88919 9.39718L6.94079 9.41158L6.98639 9.45478L6.98879 9.50398L6.94919 9.56998ZM8.07479 11.0892L8.04599 11.0916L7.97639 11.0484L7.87919 10.9932L7.79519 10.9236L7.71719 10.8456L7.68239 10.8024L7.67399 10.7388L7.69079 10.7076L7.71959 10.71L7.76879 10.7184L7.82399 10.7676L7.88759 10.8252L7.98839 10.8852L8.04839 10.9572L8.08559 11.0124L8.08799 11.0616L8.07479 11.0892ZM6.18239 12.6012L6.13079 12.6732L6.07919 12.6936L6.04439 12.6648L6.04679 12.5616L6.13319 12.4116L6.15959 12.3684L6.20279 12.348L6.24359 12.3744V12.4608L6.21719 12.5208L6.18239 12.6012ZM6.54239 15.2784L6.52559 15.3048H6.50519L6.46799 15.2736L6.43919 15.2184L6.39359 15.1176L6.32759 14.9856L6.26159 14.778L6.22679 14.5824L6.22079 14.3544L6.25199 14.13L6.26879 14.1036H6.29999L6.33119 14.1324L6.36239 14.268L6.36479 14.406L6.41999 14.5812L6.48599 14.7684L6.51479 14.9328L6.55559 15.2004L6.54239 15.2784ZM7.82759 17.73L7.86239 17.7216L7.94639 17.7396L7.98359 17.7804L7.99199 17.8296L7.98359 17.8872L7.93439 17.9244L7.87439 17.9136L7.83119 17.8728L7.81319 17.784L7.82759 17.73ZM8.66039 13.8492L8.57399 13.8552L8.46119 13.8384L8.38319 13.8036L8.20199 13.6908L8.02319 13.5576L7.82159 13.4364L7.75199 13.3848L7.84439 13.3824L7.94519 13.4196L8.11799 13.4628L8.27639 13.5408L8.46119 13.6212L8.59319 13.6812L8.66279 13.7448L8.67479 13.8024L8.66039 13.8492ZM9.61919 11.3652L9.49799 11.7048L9.39119 12.03L9.20399 12.2628L9.10919 12.3348L9.00839 12.372L8.95079 12.3312L8.94479 12.2568L9.02519 12.1704L9.10919 12.0324L9.21599 11.7996L9.27959 11.5776L9.33719 11.3592L9.44999 11.1492L9.52559 11.0424L9.58919 11.0244L9.64679 11.0472L9.66479 11.1168L9.61919 11.3652ZM14.2404 4.62598L14.3352 4.50478L14.4444 4.40158L14.5428 4.33558L14.6148 4.32958L14.664 4.36078V4.44958L14.6376 4.54798L14.5284 4.65238L14.3988 4.73278L14.2668 4.76758L14.2032 4.74718L14.1948 4.69558L14.2404 4.62598ZM13.8552 2.39038L13.9476 2.35918L14.0112 2.33038L14.0916 2.35918L14.118 2.41678L14.058 2.48638L13.974 2.51758L13.8732 2.52358L13.836 2.45398L13.8552 2.39038ZM13.0536 3.13678L13.0164 3.03598L13.0716 2.92318L13.1928 2.82238L13.386 2.81398L13.5276 2.84038L13.6368 2.91598L13.692 3.04558L13.7376 3.18358L13.7292 3.30478L13.608 3.35038H13.4784L13.3224 3.28678L13.1844 3.21238L13.0536 3.13678ZM13.5264 4.61518L13.362 4.65238H13.2144L13.188 4.60318L13.2252 4.55158L13.2684 4.52518L13.5564 4.32118L13.7316 4.21198L13.8384 4.14598H13.8756L13.8816 4.22398L13.8096 4.28158L13.7748 4.40038L13.686 4.53838L13.5264 4.61518ZM11.6076 9.88198L11.5872 9.85078L11.5932 9.77278L11.6448 9.71518L11.826 9.64078L12.204 9.52318L12.582 9.47638H12.8124L13.002 9.51718L13.1808 9.60598L13.3224 9.74398L13.3308 9.82198L13.314 9.87718L13.254 9.88918L13.1616 9.87718L13.02 9.83638L12.8868 9.79678L12.7224 9.77878H12.5184L12.3456 9.77638L12.1932 9.79078L12.0228 9.81958L11.8872 9.85678L11.7552 9.88558L11.6688 9.89158L11.6076 9.88198ZM13.9992 17.7012L13.806 17.58L13.4808 17.364L12.9768 17.0244L12.7728 16.8864L12.5568 16.7172L12.3204 16.5012L12.1476 16.3656L11.94 16.164L11.8044 16.0224L11.7204 15.8928L11.6892 15.7368L11.6952 15.5928L11.7504 15.5376L11.8452 15.5436L11.9952 15.6336L12.156 15.7896L12.2748 15.9336L12.402 16.0608L12.5256 16.2132L12.6816 16.3836L12.8292 16.548L13.3128 16.968L13.5804 17.2068L13.8192 17.4228L14.0124 17.604L14.0496 17.664L14.076 17.7072L13.9992 17.7012ZM14.1288 11.1144L14.0688 11.1492L13.9224 11.1516L13.824 11.1288L13.7688 11.0568L13.7232 10.9992V10.9068L13.7952 10.8144L13.9044 10.728L14.0076 10.7136L14.1024 10.74L14.1312 10.7916L14.1432 10.9068L14.1576 11.028L14.1288 11.1144ZM14.4192 6.36598L14.3592 6.58798L14.2236 6.94198L14.0424 7.24198L13.8408 7.61638L13.518 8.06878L13.2732 8.32558L13.1028 8.39158L13.0476 8.38918L13.0392 8.34598L13.0908 8.22478L13.2984 7.90438L13.4688 7.55278L13.6212 7.25038L13.8924 6.72598L14.1492 6.31678L14.2812 6.18958L14.382 6.17278L14.4252 6.24238L14.4192 6.36598ZM15.0108 4.82758L14.9796 4.90558L14.8668 5.03758L14.7108 5.11198L14.5548 5.17558L14.3928 5.17798H14.292L14.2572 5.13118L14.2944 5.06518L14.3832 5.02438L14.5392 4.94878L14.718 4.83958L14.802 4.77958L14.9292 4.71838L15.0096 4.73878V4.82758H15.0108ZM15.8544 9.68878L15.7968 9.70558L15.7224 9.69958L15.6732 9.65038L15.6852 9.60718L15.7344 9.57238L15.8088 9.56638L15.8724 9.61798L15.8748 9.66118L15.8544 9.68878ZM15.9408 9.40678H15.8544L15.8076 9.38038V9.31678L15.828 9.27358L15.8736 9.25918H15.9348L15.9924 9.29638L15.9984 9.34198L15.9408 9.40678ZM16.0992 8.97118L16.0404 8.99998L15.9804 9.00838L15.9168 8.99398L15.8964 8.95078V8.89918L15.948 8.86198L16.0116 8.84998H16.0728L16.11 8.88118L16.1184 8.93038L16.0992 8.97118ZM16.1796 8.60518L16.1016 8.62798L16.0152 8.62558L15.9696 8.59438L15.9672 8.55958L15.9816 8.50798L16.05 8.47678L16.1256 8.46598L16.1892 8.49718L16.212 8.55718L16.1796 8.60518ZM16.3668 8.09278L16.3236 8.15038L16.2828 8.20198L16.2024 8.21878H16.122L16.0524 8.18398L16.0464 8.12878L16.0956 8.07718L16.1328 8.03398L16.188 8.01358L16.2768 7.98718H16.3464L16.3776 8.02438L16.3668 8.09278ZM16.482 7.66318L16.4448 7.72318L16.3788 7.73518L16.3092 7.75318L16.2228 7.75078L16.1856 7.70758L16.1916 7.64398L16.2204 7.60078L16.278 7.55998L16.3668 7.54798L16.4472 7.56478L16.482 7.61398V7.66318ZM16.6032 7.34638L16.5144 7.38358L16.4448 7.40638H16.3584L16.3236 7.40038L16.2804 7.38598L16.2576 7.34278L16.2684 7.28758L16.326 7.23598L16.3752 7.20958L16.4304 7.18678L16.5084 7.18438L16.584 7.21078L16.6152 7.27078L16.6032 7.34638ZM16.6152 6.85318L16.584 6.90478L16.5288 6.95038L16.4484 6.97918L16.3536 6.98758L16.2756 6.97678L16.2552 6.92998L16.2672 6.89278L16.2984 6.86998L16.4364 6.79798L16.5024 6.78358L16.584 6.79198L16.6152 6.82078V6.85318ZM16.3464 5.68678H16.3956L16.422 5.66998L16.4328 5.61838L16.4436 5.57878L16.4676 5.54998L16.5108 5.54758L16.5624 5.56198L16.6092 5.58838L16.6152 5.64358L16.6092 5.73238L16.5408 5.79238L16.4508 5.83558L16.4136 5.82958L16.3764 5.81518L16.3392 5.76838L16.3332 5.71678L16.3464 5.68678ZM16.3464 5.31838V5.27518L16.3848 5.23798L16.4448 5.21518L16.5168 5.21278L16.56 5.22718L16.572 5.26438L16.548 5.30158L16.5108 5.34238L16.4496 5.35678H16.386L16.3464 5.31838ZM16.35 6.48478L16.4016 6.45358L16.4628 6.43918L16.5228 6.43318L16.566 6.43558L16.5828 6.46198V6.50518L16.5624 6.55078L16.5216 6.59638L16.4208 6.63958L16.3716 6.63358L16.326 6.61918L16.314 6.56998L16.3236 6.51478L16.35 6.48478ZM16.6092 6.13078L16.5948 6.16798L16.5312 6.21118L16.4448 6.24238L16.3968 6.23038L16.35 6.20398L16.3416 6.15718L16.3476 6.09958L16.3824 6.06478L16.4316 6.02998L16.5036 6.01558L16.5648 6.01318L16.6056 6.02518L16.62 6.06598L16.6092 6.13078ZM16.632 4.91158L16.6236 4.96078L16.5924 5.00398L16.5408 5.02438L16.4916 5.03638L16.4484 5.04238L16.3908 5.03638L16.3764 5.00158L16.3908 4.95598L16.4256 4.92478L16.464 4.90438L16.5276 4.86118L16.5936 4.86358L16.632 4.91158ZM16.5432 4.48798L16.578 4.50838L16.584 4.55758L16.5804 4.60438L16.5264 4.65358L16.4748 4.67398L16.44 4.66798L16.4136 4.65358V4.60678L16.416 4.55758L16.4532 4.51798L16.488 4.49758L16.5432 4.48798ZM16.476 4.24918L16.4616 4.30078L16.4232 4.32958L16.3884 4.34998L16.3416 4.35598L16.3044 4.33318L16.296 4.29238L16.3128 4.25758L16.3476 4.21078L16.3824 4.19398L16.428 4.19158L16.4664 4.21438L16.476 4.24918ZM16.0044 3.31798L16.0884 3.31198L16.206 3.26638L16.3128 3.24358L16.4016 3.23758L16.4472 3.28078L16.3836 3.37558L16.32 3.39238L16.2144 3.42958L16.0764 3.50758L15.9444 3.57718L15.792 3.64078L15.7404 3.64678L15.6972 3.63238L15.7032 3.56878L15.6804 3.50878V3.39958L15.7296 3.27598L15.798 3.20158L15.8424 3.14398L15.888 3.08638H15.9576L16.0056 3.13558L15.9948 3.25678L16.0044 3.31798ZM15.9552 2.17198L15.9864 2.19238L15.9756 2.22358L15.9288 2.27878L15.8652 2.28478L15.7896 2.27398L15.7464 2.25358L15.7152 2.21638L15.7524 2.18518L15.8064 2.16238L15.8904 2.15998L15.9552 2.17198ZM15.558 1.72558L15.702 1.71118L15.78 1.73758L15.8412 1.76878L15.8436 1.82038L15.792 1.84318L15.7116 1.84918L15.6336 1.84318L15.5724 1.83118L15.5208 1.79398L15.558 1.72558ZM16.6728 16.6872L16.6032 16.7508L16.5396 16.8228L16.476 16.956L16.4556 17.0484L16.4124 17.0832L16.3284 17.0724L16.2876 17.0232L16.302 16.848L16.3476 16.6284L16.3704 16.5072L16.4256 16.3548L16.4664 16.3092L16.5264 16.2972H16.6068L16.6416 16.3296L16.7016 16.4184L16.7136 16.5888L16.6728 16.6872ZM16.8108 14.604L16.4472 14.4132L16.2576 14.232L15.9408 13.9152L15.6528 13.5516L15.3996 13.14L15.198 12.63L15.114 12.2784L15.1536 12.0768L15.2688 12.0456L15.3864 12.1008L15.462 12.3108L15.5256 12.6192L15.6408 12.9396L15.9408 13.4064L16.344 14.0004L16.8108 14.604ZM16.8372 20.8008L16.7556 21.0252L16.716 21.1344L16.6404 21.3048L16.5828 21.504L16.566 21.5616L16.5456 21.5988H16.4904L16.4472 21.4692L16.4448 21.3216L16.476 21.12L16.548 20.844L16.6668 20.6736L16.7736 20.5416L16.8684 20.5296L16.8948 20.616L16.8372 20.8008ZM17.2572 23.8152L17.2368 23.8176L17.1996 23.8008L17.13 23.7L17.0268 23.5296L16.9776 23.4168L16.9488 23.2608V23.1168L16.9548 23.0304L16.9752 23.004H17.0208L17.07 23.0244L17.1336 23.0988L17.1804 23.2284L17.2116 23.4012L17.214 23.5392L17.2164 23.5884L17.2428 23.6544L17.2692 23.7876L17.2572 23.8152ZM15.1284 28.7964L15.0852 28.8804L15.0336 28.9584L14.9496 29.0136L14.8692 29.0304H14.8344L14.7972 29.0016L14.7852 28.9416L14.7996 28.866L14.8428 28.7796L14.9604 28.662L15.0492 28.6068L15.1128 28.6044L15.1452 28.6308L15.1536 28.6908L15.1284 28.7964ZM15.918 27.5232L15.8736 27.5832L15.8196 27.6144L15.7536 27.6372L15.7044 27.6228L15.6756 27.5712L15.6816 27.5196L15.7308 27.4584L15.8292 27.3984L15.9012 27.3864L15.936 27.4068L15.9456 27.4584L15.918 27.5232ZM17.6808 25.7652L17.5536 25.9524L17.3832 26.1516L17.19 26.3388L16.986 26.5524L16.7952 26.7252L16.6452 26.8608L16.5612 26.916L16.506 26.9136L16.4796 26.8704L16.4916 26.7984L16.7256 26.5392L17.0532 26.1852L17.4516 25.7844L17.526 25.704L17.6388 25.632L17.6796 25.6404L17.7132 25.6836L17.6808 25.7652ZM18.4152 25.1976L18.4644 25.1796L18.528 25.182L18.5568 25.1964L18.5592 25.2276L18.534 25.2684L18.4764 25.32L18.4248 25.3776H18.39L18.3504 25.3548L18.3408 25.3056L18.3576 25.2564L18.4152 25.1976ZM20.5416 19.398L20.5296 19.4928L20.5008 19.5816L20.4828 19.662L20.4228 19.6968L20.3676 19.6824L20.34 19.6308L20.322 19.4496L20.2008 19.2828L20.19 19.1448L20.2584 19.0584L20.3304 19.0356L20.4 19.0416L20.4576 19.0932L20.5236 19.1772L20.5416 19.272V19.398ZM24.1296 16.1052L24.1236 16.2408L24.0696 16.5372L23.994 16.7904L23.9076 17.0124L23.778 17.2536L23.6304 17.4612L23.4084 17.7204L23.1552 17.9628L23.0256 17.994L22.956 17.9628L22.9452 17.8704L23.0004 17.7468L23.0748 17.6112L23.2104 17.4324L23.3568 17.2332L23.4948 17.0172L23.6304 16.7952L23.7336 16.5792L23.7948 16.3572L23.8464 16.104L23.8584 15.822L23.8692 15.5688L23.8524 15.3468L23.826 15.09L23.8032 14.8476L23.7888 14.712L23.8632 14.6376L23.9124 14.664L23.9496 14.7816L24.024 15.0144L24.0852 15.294L24.1284 15.5616V16.1052H24.1296Z" fill="white"/>
</svg>
